# This file uses centimeters as units for non-parametric coordinates.

mtllib TesterPlatform.mtl
g default
v 2.795912 0.000000 -1.500460
v 1.614220 0.000000 -2.598872
v 0.000000 0.000000 -3.000919
v -1.614220 0.000000 -2.598872
v -2.795912 0.000000 -1.500460
v -3.228441 0.000000 0.000000
v 3.228441 0.000000 0.000000
v 2.795912 4.879229 -1.500460
v 1.614220 4.879229 -2.598872
v 0.000000 4.879229 -3.000919
v -1.614220 4.879229 -2.598872
v -2.795912 4.879229 -1.500460
v -3.228441 4.879229 0.000000
v 3.228441 4.879229 0.000000
v 0.000000 0.000000 0.000000
v 0.000000 4.879229 0.000000
vt 0.025920 0.552458
vt 0.055805 0.582524
vt 0.254512 0.071976
vt 0.073838 0.252887
vt 0.096719 0.593620
vt 0.501436 0.005639
vt 0.137700 0.582773
vt 0.748446 0.071652
vt 0.167766 0.552888
vt 0.929357 0.252326
vt 0.178862 0.511974
vt 0.795009 0.990887
vt 0.204991 0.609113
vt 0.007826 0.499898
vt 0.014751 0.608696
vt 0.985249 0.991305
vt 0.096967 0.511725
vt 0.013917 0.989175
vt 0.501760 0.499574
vt 0.204157 0.989592
vt 0.302632 0.989808
vt 0.696533 0.990671
vt 0.995694 0.499249
vt 0.598058 0.990456
vt 0.499583 0.990240
vt 0.401108 0.990024
vt 0.986083 0.610825
vt 0.697368 0.610192
vt 0.795843 0.610408
vt 0.598892 0.609976
vt 0.500417 0.609760
vt 0.401942 0.609544
vt 0.015072 0.511477
vt 0.303466 0.609328
vn 0.680826 0.000000 -0.732445
vn 0.680826 0.000000 -0.732445
vn 0.680826 0.000000 -0.732445
vn 0.680826 0.000000 -0.732445
vn 0.241682 0.000000 -0.970355
vn 0.241682 0.000000 -0.970355
vn 0.241682 0.000000 -0.970355
vn 0.241682 0.000000 -0.970355
vn -0.241682 0.000000 -0.970355
vn -0.241682 0.000000 -0.970355
vn -0.241682 0.000000 -0.970355
vn -0.241682 0.000000 -0.970355
vn -0.680826 0.000000 -0.732445
vn -0.680826 0.000000 -0.732445
vn -0.680826 0.000000 -0.732445
vn -0.680826 0.000000 -0.732445
vn -0.960874 0.000000 -0.276986
vn -0.960874 0.000000 -0.276986
vn -0.960874 0.000000 -0.276986
vn -0.960874 0.000000 -0.276986
vn 0.960874 0.000000 -0.276986
vn 0.960874 0.000000 -0.276986
vn 0.960874 0.000000 -0.276986
vn 0.960874 0.000000 -0.276986
vn 0.000000 -1.000000 0.000000
vn 0.000000 -1.000000 0.000000
vn 0.000000 -1.000000 0.000000
vn 0.000000 -1.000000 0.000000
vn 0.000000 1.000000 0.000000
vn 0.000000 1.000000 0.000000
vn 0.000000 1.000000 0.000000
vn 0.000000 1.000000 0.000000
vn 0.000000 0.000000 1.000000
vn 0.000000 0.000000 1.000000
vn 0.000000 0.000000 1.000000
vn 0.000000 0.000000 1.000000
vn 0.000000 0.000000 1.000000
vn 0.000000 0.000000 1.000000
vn 0.000000 0.000000 1.000000
vn 0.000000 0.000000 1.000000
vn 0.000000 1.000000 0.000000
vn 0.000000 1.000000 0.000000
vn 0.000000 1.000000 0.000000
vn 0.000000 1.000000 0.000000
vn 0.000000 -1.000000 0.000000
vn 0.000000 -1.000000 0.000000
vn 0.000000 -1.000000 0.000000
vn 0.000000 -1.000000 0.000000
s off
g pCylinder4
usemtl initialShadingGroup
f 1/34/1 2/32/2 9/26/3 8/21/4
f 2/32/5 3/31/6 10/25/7 9/26/8
f 3/31/9 4/30/10 11/24/11 10/25/12
f 4/30/13 5/28/14 12/22/15 11/24/16
f 5/28/17 6/29/18 13/12/19 12/22/20
f 7/13/21 1/34/22 8/21/23 14/20/24
s 1
f 15/17/25 4/7/26 3/5/27 2/2/28
s 2
f 16/19/29 14/14/30 8/4/31 9/3/32
s off
f 15/15/33 7/13/34 14/20/35 16/18/36
f 6/29/37 15/27/38 16/16/39 13/12/40
s 2
f 16/19/29 9/3/32 10/6/41 11/8/42
f 16/19/29 11/8/42 12/10/43 13/23/44
s 1
f 5/9/45 4/7/26 15/17/25 6/11/46
f 15/17/25 2/2/28 1/1/47 7/33/48
